<?xml version="1.0" encoding="utf-8"?>
<svg version="1.1" id="Capa_1" xmlns="http://www.w3.org/2000/svg" xmlns:xlink="http://www.w3.org/1999/xlink" x="0px" y="0px"
	 viewBox="0 0 33 33" style="enable-background:new 0 0 33 33;" xml:space="preserve">
<style type="text/css">
	.st0{fill:#FFFFFF;}
</style>
<g>
	<path class="st0" d="M10,33c-0.1,0-0.2,0-0.3-0.1c-0.2-0.1-0.3-0.4-0.2-0.6L14.8,18l-6.3-1.8c-0.2,0-0.3-0.2-0.3-0.3
		c0-0.2,0-0.3,0.1-0.5L21,0.2c0.2-0.2,0.4-0.2,0.6-0.1c0.2,0.1,0.3,0.4,0.2,0.6l-3.7,12.8l6.3,1.8c0.2,0,0.3,0.2,0.3,0.3
		c0,0.2,0,0.3-0.1,0.5L10.4,32.8C10.3,33,10.2,33,10,33z"/>
</g>
</svg>
